<svg width="24" height="19" viewBox="0 0 24 19" fill="none" xmlns="http://www.w3.org/2000/svg">
<path d="M0 3.14286C0 2.30932 0.316071 1.50992 0.87868 0.920521C1.44129 0.331121 2.20435 0 3 0H21C21.7956 0 22.5587 0.331121 23.1213 0.920521C23.6839 1.50992 24 2.30932 24 3.14286V15.7143C24 16.5478 23.6839 17.3472 23.1213 17.9366C22.5587 18.526 21.7956 18.8571 21 18.8571H3C2.20435 18.8571 1.44129 18.526 0.87868 17.9366C0.316071 17.3472 0 16.5478 0 15.7143V3.14286ZM3 1.57143C2.60218 1.57143 2.22064 1.73699 1.93934 2.03169C1.65804 2.32639 1.5 2.72609 1.5 3.14286V3.48386L12 10.0839L22.5 3.48386V3.14286C22.5 2.72609 22.342 2.32639 22.0607 2.03169C21.7794 1.73699 21.3978 1.57143 21 1.57143H3ZM22.5 5.31614L15.438 9.75543L22.5 14.3079V5.31614ZM22.449 16.1213L13.989 10.6669L12 11.9161L10.011 10.6669L1.551 16.1197C1.63624 16.4541 1.82447 16.7497 2.08648 16.9605C2.34849 17.1713 2.66962 17.2857 3 17.2857H21C21.3302 17.2858 21.6512 17.1717 21.9131 16.9611C22.1751 16.7506 22.3635 16.4554 22.449 16.1213ZM1.5 14.3079L8.562 9.75543L1.5 5.31614V14.3079Z" fill="url(#paint0_linear_1614_2194)"/>
<defs>
<linearGradient id="paint0_linear_1614_2194" x1="-0.999992" y1="8.64286" x2="26.9998" y2="8.64286" gradientUnits="userSpaceOnUse">
<stop stop-color="#F86CA7"/>
<stop offset="1" stop-color="#FF7F18"/>
</linearGradient>
</defs>
</svg>
