<svg width="24" height="24" viewBox="0 0 24 24" fill="none" xmlns="http://www.w3.org/2000/svg">
<path d="M18.9775 14.8671C18.4855 14.3555 17.892 14.082 17.263 14.082C16.639 14.082 16.0404 14.3504 15.5281 14.862L13.9251 16.4576C13.7932 16.3867 13.6613 16.3208 13.5345 16.255C13.3519 16.1638 13.1794 16.0777 13.0323 15.9865C11.5308 15.0342 10.1663 13.7932 8.8575 12.1875C8.22342 11.3872 7.79731 10.7135 7.48788 10.0297C7.90384 9.64978 8.28936 9.25468 8.66474 8.87478C8.80678 8.73295 8.94881 8.58605 9.09085 8.44422C10.1561 7.3805 10.1561 6.00272 9.09085 4.939L7.706 3.55616C7.54875 3.39913 7.38642 3.23704 7.23424 3.07495C6.92988 2.76089 6.6103 2.43671 6.28058 2.13279C5.78853 1.64652 5.20009 1.38818 4.58122 1.38818C3.96236 1.38818 3.36378 1.64652 2.85651 2.13279C2.85144 2.13786 2.85144 2.13786 2.84636 2.14292L1.12165 3.88034C0.472343 4.5287 0.102036 5.3189 0.0208734 6.23573C-0.100871 7.71481 0.33538 9.09259 0.670178 9.99422C1.49195 12.2078 2.71955 14.2592 4.55079 16.4576C6.77263 19.1068 9.44594 21.1988 12.4997 22.6728C13.6664 23.2249 15.2237 23.8784 16.9637 23.9898C17.0702 23.9949 17.1818 23.9999 17.2832 23.9999C18.455 23.9999 19.4391 23.5795 20.2102 22.7437C20.2153 22.7336 20.2254 22.7285 20.2305 22.7184C20.4943 22.3993 20.7986 22.1105 21.1182 21.8016C21.3363 21.5939 21.5595 21.3761 21.7777 21.1481C22.2798 20.6264 22.5436 20.0186 22.5436 19.3955C22.5436 18.7674 22.2748 18.1646 21.7624 17.6581L18.9775 14.8671ZM20.7936 20.2009C20.7885 20.2009 20.7885 20.206 20.7936 20.2009C20.5957 20.4137 20.3928 20.6061 20.1747 20.8189C19.845 21.1329 19.5102 21.4622 19.1957 21.832C18.6833 22.379 18.0797 22.6373 17.2883 22.6373C17.2122 22.6373 17.1311 22.6373 17.055 22.6323C15.5484 22.536 14.1483 21.9485 13.0983 21.447C10.2271 20.0591 7.706 18.0887 5.61098 15.5914C3.88119 13.5096 2.72462 11.5847 1.95864 9.51808C1.48688 8.2568 1.31441 7.27412 1.3905 6.34717C1.44123 5.75452 1.6695 5.26318 2.09053 4.84276L3.82032 3.11547C4.06888 2.88246 4.33266 2.75583 4.59137 2.75583C4.91095 2.75583 5.16966 2.94831 5.33198 3.1104C5.33706 3.11547 5.34213 3.12053 5.3472 3.1256C5.65663 3.41433 5.95085 3.71318 6.26029 4.0323C6.41754 4.19439 6.57987 4.35648 6.74219 4.52364L8.12704 5.90648C8.66474 6.44341 8.66474 6.93981 8.12704 7.47674C7.97993 7.62363 7.83789 7.77053 7.69078 7.91236C7.26468 8.34798 6.85886 8.75321 6.41754 9.14831C6.40739 9.15844 6.39725 9.1635 6.39218 9.17363C5.95592 9.60925 6.03709 10.0347 6.1284 10.3235C6.13347 10.3387 6.13854 10.3539 6.14361 10.3691C6.50377 11.2403 7.01104 12.0609 7.78209 13.0385L7.78717 13.0436C9.18723 14.7658 10.6634 16.1081 12.2917 17.1364C12.4997 17.2681 12.7128 17.3744 12.9157 17.4757C13.0983 17.5669 13.2707 17.653 13.4179 17.7442C13.4381 17.7543 13.4584 17.7695 13.4787 17.7797C13.6512 17.8658 13.8135 17.9063 13.9809 17.9063C14.402 17.9063 14.6657 17.6429 14.752 17.5568L16.4868 15.8244C16.6593 15.6522 16.9332 15.4445 17.2528 15.4445C17.5673 15.4445 17.826 15.6421 17.9833 15.8143C17.9884 15.8194 17.9884 15.8194 17.9934 15.8244L20.7885 18.6155C21.311 19.1321 21.311 19.664 20.7936 20.2009Z" fill="url(#paint0_linear_1614_2204)"/>
<path d="M12.9699 5.70932C14.299 5.9322 15.5063 6.5603 16.4701 7.52272C17.4339 8.48514 18.0578 9.69069 18.2861 11.0178C18.3419 11.3521 18.6311 11.5851 18.9608 11.5851C19.0014 11.5851 19.0369 11.5801 19.0775 11.575C19.4528 11.5142 19.7014 11.1596 19.6405 10.7848C19.3666 9.17909 18.6057 7.7152 17.4441 6.55524C16.2824 5.39527 14.8164 4.63547 13.2084 4.36194C12.833 4.30115 12.483 4.54936 12.417 4.91913C12.3511 5.2889 12.5946 5.64854 12.9699 5.70932Z" fill="url(#paint1_linear_1614_2204)"/>
<path d="M23.9888 10.5869C23.5373 7.94277 22.2894 5.53673 20.3719 3.62202C18.4545 1.70732 16.0449 0.461242 13.397 0.0104252C13.0267 -0.0554243 12.6767 0.197843 12.6107 0.567614C12.5499 0.94245 12.7984 1.29196 13.1738 1.35781C15.5377 1.75797 17.6936 2.87742 19.4081 4.58444C21.1227 6.29653 22.2387 8.4493 22.6394 10.8098C22.6952 11.1441 22.9844 11.3771 23.3141 11.3771C23.3547 11.3771 23.3902 11.372 23.4308 11.3669C23.8011 11.3112 24.0547 10.9567 23.9888 10.5869Z" fill="url(#paint2_linear_1614_2204)"/>
<defs>
<linearGradient id="paint0_linear_1614_2204" x1="-0.93931" y1="11.7519" x2="25.3614" y2="11.7519" gradientUnits="userSpaceOnUse">
<stop stop-color="#F86CA7"/>
<stop offset="1" stop-color="#FF7F18"/>
</linearGradient>
<linearGradient id="paint1_linear_1614_2204" x1="12.1044" y1="7.66761" x2="20.5551" y2="7.66761" gradientUnits="userSpaceOnUse">
<stop stop-color="#F86CA7"/>
<stop offset="1" stop-color="#FF7F18"/>
</linearGradient>
<linearGradient id="paint2_linear_1614_2204" x1="12.1267" y1="5.21449" x2="25.4238" y2="5.21449" gradientUnits="userSpaceOnUse">
<stop stop-color="#F86CA7"/>
<stop offset="1" stop-color="#FF7F18"/>
</linearGradient>
</defs>
</svg>
